<svg version="1.1" id="Layer_1" xmlns="http://www.w3.org/2000/svg" xmlns:xlink="http://www.w3.org/1999/xlink" x="0px" y="0px"
	 width="100%" viewBox="0 0 612 612" enable-background="new 0 0 612 612" xml:space="preserve">
<path fill="#FFFFFF" opacity="1.000000" stroke="none" 
	d="
M428.000000,613.000000 
	C285.333374,613.000000 143.166718,613.000000 1.000057,613.000000 
	C1.000038,409.000061 1.000038,205.000122 1.000019,1.000139 
	C204.999893,1.000093 408.999786,1.000093 612.999756,1.000046 
	C612.999878,204.999863 612.999878,408.999725 612.999939,612.999756 
	C551.500000,613.000000 490.000000,613.000000 428.000000,613.000000 
M297.943451,552.099060 
	C308.289551,552.047668 318.635681,551.996277 329.866455,552.097107 
	C332.260132,552.016724 334.653839,551.936401 337.967773,552.008850 
	C353.258270,551.626343 368.584473,551.760803 383.828796,550.709229 
	C397.771667,549.747437 412.266022,550.621704 425.733459,542.323242 
	C428.693451,541.875610 431.689636,541.592590 434.607117,540.951538 
	C446.429230,538.354309 458.448792,536.355835 469.963745,532.755493 
	C479.135925,529.887634 482.510529,523.356812 481.506195,514.112854 
	C479.438812,495.083984 474.580963,476.822968 465.116272,460.042572 
	C455.417786,442.847656 441.962463,429.713776 422.762421,422.047607 
	C416.034546,418.210480 409.401367,414.192688 402.545746,410.599396 
	C397.941711,408.186249 393.022614,406.374329 387.532440,403.904480 
	C380.412170,401.895081 373.291931,399.885681 366.192261,397.027649 
	C366.451172,387.891510 367.006836,378.749603 366.830627,369.621887 
	C366.754517,365.680511 368.262604,363.365631 371.234802,361.506226 
	C389.785675,349.901062 403.323853,333.931976 412.428040,314.130493 
	C417.103729,303.960968 420.286255,293.368805 421.532928,281.697449 
	C423.747681,279.457458 425.962402,277.217468 428.889801,274.973907 
	C431.001892,273.753387 433.470612,272.899506 435.165894,271.250458 
	C443.636963,263.010162 443.518768,252.671082 440.674591,242.456833 
	C439.000092,236.443176 435.133270,231.180405 427.737610,229.201126 
	C427.436005,227.299393 427.134430,225.397659 427.359131,222.823837 
	C428.097198,217.065826 429.067383,211.326447 429.531158,205.546432 
	C431.111542,185.848267 431.845673,165.679535 423.887848,147.465363 
	C403.927277,101.778687 370.001007,73.695160 318.763672,69.096954 
	C320.449402,64.077919 317.419098,61.288467 313.366516,61.212944 
	C306.532501,61.085587 299.560211,61.706081 292.863861,63.076385 
	C287.928741,64.086273 287.410248,66.848679 288.983368,71.722862 
	C248.648865,78.420303 221.986343,102.574890 205.975708,138.829880 
	C195.039383,163.594437 193.890579,190.386108 194.202682,217.127136 
	C194.211212,217.858704 194.832352,218.583084 194.707001,219.817978 
	C193.440170,223.175461 192.173325,226.532928 190.172394,229.873962 
	C188.959229,230.372696 187.610107,230.673996 186.554245,231.401154 
	C177.457779,237.665741 174.002106,257.245575 180.790588,266.135803 
	C183.450745,269.619507 187.321060,272.179169 190.887070,275.827454 
	C194.711502,281.871124 197.556488,283.074158 203.340912,281.115417 
	C204.551636,280.705414 205.779358,280.345703 207.336823,280.725922 
	C207.877747,286.319977 208.192032,291.946991 209.000259,297.502136 
	C211.928802,317.630585 220.357697,335.126221 234.851044,349.479645 
	C240.233002,354.809631 246.101715,359.648163 251.572815,365.592072 
	C252.010391,377.015472 252.447983,388.438904 252.306458,400.288300 
	C247.401642,402.469147 242.496811,404.649994 236.832855,406.840210 
	C224.136017,410.472260 211.704941,414.708313 200.167465,422.740204 
	C171.130432,437.298279 151.832458,460.632568 139.415512,490.164917 
	C135.509048,499.456024 133.060806,509.053040 133.209839,519.219849 
	C133.282928,524.205688 134.828293,528.626526 139.297546,531.033936 
	C145.110367,534.165100 151.110626,537.064209 157.284821,539.386108 
	C173.884048,545.628357 190.943756,549.734375 209.727158,549.095825 
	C236.136292,550.012512 262.545410,550.929199 289.839386,552.019714 
	C292.235260,551.982178 294.631134,551.944580 297.943451,552.099060 
z"/>
<path fill="#F0BA9B" opacity="1.000000" stroke="none" 
	d="
M420.986420,282.124756 
	C420.286255,293.368805 417.103729,303.960968 412.428040,314.130493 
	C403.323853,333.931976 389.785675,349.901062 371.234802,361.506226 
	C368.262604,363.365631 366.754517,365.680511 366.830627,369.621887 
	C367.006836,378.749603 366.451172,387.891510 365.889221,397.655518 
	C364.560394,399.337494 363.483673,400.347046 362.517365,401.453064 
	C356.864136,407.923584 351.734344,414.950836 345.482269,420.775116 
	C336.432068,429.206024 325.310638,433.479401 312.753571,433.001343 
	C290.729767,432.162872 273.695953,421.616119 259.897186,405.071594 
	C261.032867,404.681549 262.053436,404.728699 262.897552,404.365601 
	C274.656525,399.307098 286.382263,394.171387 298.135834,389.100220 
	C304.273712,386.451965 310.450256,383.893280 317.065613,381.101654 
	C316.033356,380.433563 315.782837,380.145569 315.503601,380.114349 
	C314.680267,380.022278 313.842743,379.971680 313.015747,380.010529 
	C294.943695,380.859070 277.896301,376.956085 261.681915,369.063080 
	C258.434143,367.482117 255.062820,366.154999 251.748474,364.710815 
	C246.101715,359.648163 240.233002,354.809631 234.851044,349.479645 
	C220.357697,335.126221 211.928802,317.630585 209.000259,297.502136 
	C208.192032,291.946991 207.877747,286.319977 207.377747,280.081787 
	C213.288544,275.355408 219.170273,271.290100 225.026245,267.187988 
	C249.128769,250.304123 275.616028,239.967026 305.172150,238.297272 
	C325.775360,237.133301 344.623047,243.770737 362.529907,252.866837 
	C377.784943,260.615906 392.282501,269.843689 407.354980,277.972626 
	C411.453186,280.182861 416.418884,280.784698 420.986420,282.124756 
z"/>
<path fill="#DA9632" opacity="1.000000" stroke="none" 
	d="
M318.724091,69.748573 
	C370.001007,73.695160 403.927277,101.778687 423.887848,147.465363 
	C431.845673,165.679535 431.111542,185.848267 429.531158,205.546432 
	C429.067383,211.326447 428.097198,217.065826 426.776550,223.001434 
	C414.871155,209.864914 401.778168,198.789352 386.091095,190.843597 
	C359.759186,177.506088 331.791870,172.492767 302.482147,173.821243 
	C273.803314,175.121124 246.943863,182.777908 222.616714,197.967667 
	C212.837524,204.073776 204.280884,212.137863 195.167816,219.310822 
	C194.832352,218.583084 194.211212,217.858704 194.202682,217.127136 
	C193.890579,190.386108 195.039383,163.594437 205.975708,138.829880 
	C221.986343,102.574890 248.648865,78.420303 289.805084,71.716751 
	C300.164185,73.514305 309.643250,74.482597 318.724091,69.748573 
z"/>
<path fill="#D99632" opacity="1.000000" stroke="none" 
	d="
M200.903625,422.648529 
	C211.704941,414.708313 224.136017,410.472260 237.376984,407.290222 
	C238.338730,429.390656 238.762787,451.040924 239.170425,472.691498 
	C239.306854,479.936981 239.288788,479.980347 246.737289,479.792358 
	C265.550995,479.317627 284.361816,478.714355 303.177094,478.321045 
	C329.491669,477.770905 355.809326,477.369080 382.125336,476.887329 
	C383.909607,476.854706 385.691345,476.684326 388.244507,476.532104 
	C388.244507,452.187195 388.244507,428.240295 388.244507,404.293396 
	C393.022614,406.374329 397.941711,408.186249 402.545746,410.599396 
	C409.401367,414.192688 416.034546,418.210480 422.961853,422.754028 
	C423.332245,428.107178 423.631989,432.753265 423.653503,437.400696 
	C423.807587,470.659149 423.893066,503.917938 424.054077,537.176331 
	C424.062592,538.935425 424.558167,540.692078 424.826965,542.449890 
	C412.266022,550.621704 397.771667,549.747437 383.828796,550.709229 
	C368.584473,551.760803 353.258270,551.626343 337.818512,551.665649 
	C345.121887,551.080200 352.574554,550.837830 360.027191,550.595459 
	C360.004242,550.188843 359.981262,549.782166 359.958313,549.375549 
	C328.685852,549.375549 297.413361,549.375549 266.140900,549.375549 
	C268.125427,550.605957 270.178558,550.869080 272.239990,550.987183 
	C277.809631,551.306396 283.382782,551.563843 288.954559,551.845825 
	C262.545410,550.929199 236.136292,550.012512 209.088974,548.726501 
	C207.232941,546.388245 205.036377,544.461670 204.949036,542.443787 
	C204.099655,522.818787 203.635986,503.177521 202.997330,483.542999 
	C202.337036,463.243591 201.604538,442.946594 200.903625,422.648529 
M414.662048,489.874207 
	C407.342926,483.876526 399.692352,483.526886 393.989563,488.929474 
	C389.196320,493.470428 388.315338,502.746338 392.149811,508.300293 
	C396.816101,515.059082 405.937988,516.971741 412.427307,512.552185 
	C419.503510,507.732971 420.629669,498.370056 414.662048,489.874207 
M224.669098,485.060150 
	C217.807846,485.882416 213.317749,489.694153 211.657089,496.294067 
	C210.144455,502.305725 212.312912,507.457428 216.929108,511.446167 
	C221.356186,515.271545 226.446762,515.949707 231.835632,513.721191 
	C237.852722,511.233002 240.944519,505.034363 239.972687,497.687073 
	C239.038116,490.621582 233.862289,486.107727 224.669098,485.060150 
z"/>
<path fill="#203051" opacity="1.000000" stroke="none" 
	d="
M194.937408,219.564392 
	C204.280884,212.137863 212.837524,204.073776 222.616714,197.967667 
	C246.943863,182.777908 273.803314,175.121124 302.482147,173.821243 
	C331.791870,172.492767 359.759186,177.506088 386.091095,190.843597 
	C401.778168,198.789352 414.871155,209.864914 426.513428,223.337479 
	C427.134430,225.397659 427.436005,227.299393 427.804871,229.997513 
	C428.108093,234.110260 428.552643,237.427292 428.542236,240.742874 
	C428.506348,252.154678 428.311462,263.565979 428.177155,274.977478 
	C425.962402,277.217468 423.747681,279.457458 421.259674,281.911102 
	C416.418884,280.784698 411.453186,280.182861 407.354980,277.972626 
	C392.282501,269.843689 377.784943,260.615906 362.529907,252.866837 
	C344.623047,243.770737 325.775360,237.133301 305.172150,238.297272 
	C275.616028,239.967026 249.128769,250.304123 225.026245,267.187988 
	C219.170273,271.290100 213.288544,275.355408 207.208954,279.700256 
	C205.779358,280.345703 204.551636,280.705414 203.340912,281.115417 
	C197.556488,283.074158 194.711502,281.871124 190.838654,275.072388 
	C190.513168,270.214783 189.954956,266.108215 190.013718,262.010529 
	C190.167282,251.301758 190.590683,240.596848 190.906479,229.890411 
	C192.173325,226.532928 193.440170,223.175461 194.937408,219.564392 
z"/>
<path fill="#213051" opacity="1.000000" stroke="none" 
	d="
M387.888489,404.098938 
	C388.244507,428.240295 388.244507,452.187195 388.244507,476.532104 
	C385.691345,476.684326 383.909607,476.854706 382.125336,476.887329 
	C355.809326,477.369080 329.491669,477.770905 303.177094,478.321045 
	C284.361816,478.714355 265.550995,479.317627 246.737289,479.792358 
	C239.288788,479.980347 239.306854,479.936981 239.170425,472.691498 
	C238.762787,451.040924 238.338730,429.390656 237.756531,407.285553 
	C242.496811,404.649994 247.401642,402.469147 252.923126,400.194580 
	C255.593216,401.839905 257.646637,403.578979 259.700043,405.318054 
	C273.695953,421.616119 290.729767,432.162872 312.753571,433.001343 
	C325.310638,433.479401 336.432068,429.206024 345.482269,420.775116 
	C351.734344,414.950836 356.864136,407.923584 362.517365,401.453064 
	C363.483673,400.347046 364.560394,399.337494 365.878906,398.079834 
	C373.291931,399.885681 380.412170,401.895081 387.888489,404.098938 
z"/>
<path fill="#213052" opacity="1.000000" stroke="none" 
	d="
M200.535553,422.694366 
	C201.604538,442.946594 202.337036,463.243591 202.997330,483.542999 
	C203.635986,503.177521 204.099655,522.818787 204.949036,542.443787 
	C205.036377,544.461670 207.232941,546.388245 208.664658,548.633057 
	C190.943756,549.734375 173.884048,545.628357 157.284821,539.386108 
	C151.110626,537.064209 145.110367,534.165100 139.297546,531.033936 
	C134.828293,528.626526 133.282928,524.205688 133.209839,519.219849 
	C133.060806,509.053040 135.509048,499.456024 139.415512,490.164917 
	C151.832458,460.632568 171.130432,437.298279 200.535553,422.694366 
z"/>
<path fill="#213052" opacity="1.000000" stroke="none" 
	d="
M425.280212,542.386597 
	C424.558167,540.692078 424.062592,538.935425 424.054077,537.176331 
	C423.893066,503.917938 423.807587,470.659149 423.653503,437.400696 
	C423.631989,432.753265 423.332245,428.107178 423.217285,422.965851 
	C441.962463,429.713776 455.417786,442.847656 465.116272,460.042572 
	C474.580963,476.822968 479.438812,495.083984 481.506195,514.112854 
	C482.510529,523.356812 479.135925,529.887634 469.963745,532.755493 
	C458.448792,536.355835 446.429230,538.354309 434.607117,540.951538 
	C431.689636,541.592590 428.693451,541.875610 425.280212,542.386597 
z"/>
<path fill="#EAA076" opacity="1.000000" stroke="none" 
	d="
M259.897186,405.071594 
	C257.646637,403.578979 255.593216,401.839905 253.212677,399.981567 
	C252.447983,388.438904 252.010391,377.015472 251.660645,365.151428 
	C255.062820,366.154999 258.434143,367.482117 261.681915,369.063080 
	C277.896301,376.956085 294.943695,380.859070 313.015747,380.010529 
	C313.842743,379.971680 314.680267,380.022278 315.503601,380.114349 
	C315.782837,380.145569 316.033356,380.433563 317.065613,381.101654 
	C310.450256,383.893280 304.273712,386.451965 298.135834,389.100220 
	C286.382263,394.171387 274.656525,399.307098 262.897552,404.365601 
	C262.053436,404.728699 261.032867,404.681549 259.897186,405.071594 
z"/>
<path fill="#EDBA9E" opacity="1.000000" stroke="none" 
	d="
M428.533478,274.975708 
	C428.311462,263.565979 428.506348,252.154678 428.542236,240.742874 
	C428.552643,237.427292 428.108093,234.110260 427.966736,230.328888 
	C435.133270,231.180405 439.000092,236.443176 440.674591,242.456833 
	C443.518768,252.671082 443.636963,263.010162 435.165894,271.250458 
	C433.470612,272.899506 431.001892,273.753387 428.533478,274.975708 
z"/>
<path fill="#EDBA9E" opacity="1.000000" stroke="none" 
	d="
M190.539429,229.882187 
	C190.590683,240.596848 190.167282,251.301758 190.013718,262.010529 
	C189.954956,266.108215 190.513168,270.214783 190.715225,274.738464 
	C187.321060,272.179169 183.450745,269.619507 180.790588,266.135803 
	C174.002106,257.245575 177.457779,237.665741 186.554245,231.401154 
	C187.610107,230.673996 188.959229,230.372696 190.539429,229.882187 
z"/>
<path fill="#233150" opacity="1.000000" stroke="none" 
	d="
M318.743896,69.422760 
	C309.643250,74.482597 300.164185,73.514305 290.268707,71.646690 
	C287.410248,66.848679 287.928741,64.086273 292.863861,63.076385 
	C299.560211,61.706081 306.532501,61.085587 313.366516,61.212944 
	C317.419098,61.288467 320.449402,64.077919 318.743896,69.422760 
z"/>
<path fill="#DA9632" opacity="1.000000" stroke="none" 
	d="
M289.396973,551.932739 
	C283.382782,551.563843 277.809631,551.306396 272.239990,550.987183 
	C270.178558,550.869080 268.125427,550.605957 266.140900,549.375549 
	C297.413361,549.375549 328.685852,549.375549 359.958313,549.375549 
	C359.981262,549.782166 360.004242,550.188843 360.027191,550.595459 
	C352.574554,550.837830 345.121887,551.080200 337.358398,551.589294 
	C334.653839,551.936401 332.260132,552.016724 329.123871,551.735046 
	C320.975800,551.248657 313.570007,551.023987 306.165009,551.048462 
	C303.118103,551.058533 300.072968,551.604675 297.027008,551.906982 
	C294.631134,551.944580 292.235260,551.982178 289.396973,551.932739 
z"/>
<path fill="#D99632" opacity="1.000000" stroke="none" 
	d="
M297.485229,552.003052 
	C300.072968,551.604675 303.118103,551.058533 306.165009,551.048462 
	C313.570007,551.023987 320.975800,551.248657 328.681519,551.658936 
	C318.635681,551.996277 308.289551,552.047668 297.485229,552.003052 
z"/>
<path fill="#233150" opacity="1.000000" stroke="none" 
	d="
M414.872040,490.177612 
	C420.629669,498.370056 419.503510,507.732971 412.427307,512.552185 
	C405.937988,516.971741 396.816101,515.059082 392.149811,508.300293 
	C388.315338,502.746338 389.196320,493.470428 393.989563,488.929474 
	C399.692352,483.526886 407.342926,483.876526 414.872040,490.177612 
z"/>
<path fill="#233150" opacity="1.000000" stroke="none" 
	d="
M225.078156,485.057251 
	C233.862289,486.107727 239.038116,490.621582 239.972687,497.687073 
	C240.944519,505.034363 237.852722,511.233002 231.835632,513.721191 
	C226.446762,515.949707 221.356186,515.271545 216.929108,511.446167 
	C212.312912,507.457428 210.144455,502.305725 211.657089,496.294067 
	C213.317749,489.694153 217.807846,485.882416 225.078156,485.057251 
z"/>
</svg>